<svg xmlns="http://www.w3.org/2000/svg" width="448.5" height="94.5" viewBox="0 0 448.5 94.5">
  <g id="Group_4" data-name="Group 4" transform="translate(-1225 -493.5)">
    <g id="Group_3" data-name="Group 3">
      <g id="Group_2" data-name="Group 2">
        <g id="Group_1" data-name="Group 1">
          <path id="Path_1" data-name="Path 1" d="M.22,150.318,54.472,129.3l17.014,2.438,16.007-20.031,17,5.484,13-13.508,2,5,3-5,2.5,10,16.5,3,28.5,15.5,18-8,11.5-.5,5.5-11,6-8.5h17.5l.5-13.75,9,8.75,20-28,19.5,18,10-9.5,10.5,24,9.492-5.493,9.984,8.017,6.469-1.969,9.938,6.562,12.875-9.125,101.143,48.557" transform="translate(1225 437)" fill="#275a5b" stroke="#217274" stroke-linecap="round" stroke-width="1"/>
          <path id="Path_2" data-name="Path 2" d="M258,71.178l-24.249,24" transform="translate(1225 437)" fill="none" stroke="#217274" stroke-width="1"/>
          <path id="Path_3" data-name="Path 3" d="M229,90.427l-15.833,13.916" transform="translate(1225 437)" fill="none" stroke="#217274" stroke-width="1"/>
          <path id="Path_4" data-name="Path 4" d="M206.833,110.01l-14.5,11.667-9-1.667-19,5.333-22-12.666-19.833-9" transform="translate(1225 437)" fill="none" stroke="#217274" stroke-width="1"/>
          <path id="Path_5" data-name="Path 5" d="M307.484,98.192l16.453,6.048" transform="translate(1225 437)" fill="none" stroke="#217274" stroke-width="1"/>
          <path id="Path_6" data-name="Path 6" d="M343.6,64.068c.024.147.045.3.062.447,3.178,2.284,4.941,4.568,4.314,5.977-.592,1.328-3.174,1.573-6.658.866a37.068,37.068,0,0,1-7.67-2.567A37.913,37.913,0,0,1,327.009,65c-3.072-2.243-4.763-4.471-4.147-5.855.652-1.464,3.724-1.612,7.755-.618.12-.083.242-.164.367-.241-5.193-1.4-9.3-1.205-10.177.767-.914,2.052,1.8,5.709,6.565,8.915A37.139,37.139,0,0,0,338.9,73.081c5.328,1.309,9.62.888,10.508-1.105C350.265,70.06,347.848,66.973,343.6,64.068Z" transform="translate(1225 437)" fill="none" stroke="#217274" stroke-width="1" fill-rule="evenodd"/>
          <path id="Path_7" data-name="Path 7" d="M343.708,65.158c0,.1.007.2.007.3s0,.213-.008.319c.889.795,1.322,1.47,1.129,1.9-.157.354-.714.5-1.558.465a26.04,26.04,0,0,1-8.234-2.487,28.2,28.2,0,0,1-7.019-4.249c-.794-.74-1.171-1.367-.989-1.776.217-.487,1.193-.584,2.637-.348.141-.133.288-.26.438-.382-3.013-.662-5.218-.532-5.69.525-.433.974.646,2.636,2.733,4.4a29.9,29.9,0,0,0,6.839,4.191,29.089,29.089,0,0,0,8.1,2.42c2.462.3,4.222-.01,4.632-.928C347.174,68.5,345.964,66.882,343.708,65.158Z" transform="translate(1225 437)" fill="none" stroke="#217274" stroke-width="1" fill-rule="evenodd"/>
          <path id="Path_8" data-name="Path 8" d="M343.685,65.426A8.366,8.366,0,1,1,335.319,57,8.4,8.4,0,0,1,343.685,65.426Z" transform="translate(1225 437)" fill="none" stroke="#217274" stroke-width="1" fill-rule="evenodd"/>
          <path id="Path_9" data-name="Path 9" d="M87.636,111.594,68.4,123.636,56.034,119.99l-13.017,9.677-9.008-3.412L.584,150.2h0" transform="translate(1225 437)" fill="none" stroke="#217274" stroke-width="1"/>
          <line id="Line_1" data-name="Line 1" x2="448.5" transform="translate(1225 587.5)" fill="none" stroke="#217274" stroke-width="1"/>
        </g>
      </g>
    </g>
  </g>
</svg>
