<svg id="Filled" height="512" viewBox="0 0 512 512" width="512" xmlns="http://www.w3.org/2000/svg"><path d="m392 488h-272a48 48 0 0 1 -48-48v-368a48 48 0 0 1 48-48h224l96 96v320a48 48 0 0 1 -48 48z" fill="#8690fa"/><path d="m72 360h368a0 0 0 0 1 0 0v80a48 48 0 0 1 -48 48h-272a48 48 0 0 1 -48-48v-80a0 0 0 0 1 0 0z" fill="#cfd2fc"/><path d="m440 120h-48a48 48 0 0 1 -48-48v-48z" fill="#cfd2fc"/><path d="m349.657 18.343a8 8 0 0 0 -5.657-2.343h-224a56.064 56.064 0 0 0 -56 56v368a56.064 56.064 0 0 0 56 56h272a56.064 56.064 0 0 0 56-56v-320a8 8 0 0 0 -2.343-5.657zm2.343 24.97 68.687 68.687h-28.687a40.045 40.045 0 0 1 -40-40zm-232-11.313h216v40a56.064 56.064 0 0 0 56 56h40v224h-352v-280a40.045 40.045 0 0 1 40-40zm272 448h-272a40.045 40.045 0 0 1 -40-40v-72h352v72a40.045 40.045 0 0 1 -40 40z"/><path d="m168 384a8 8 0 0 0 -8 8v24h-16v-24a8 8 0 0 0 -16 0v64a8 8 0 0 0 16 0v-24h16v24a8 8 0 0 0 16 0v-64a8 8 0 0 0 -8-8z"/><path d="m232 384h-32a8 8 0 0 0 0 16h8v56a8 8 0 0 0 16 0v-56h8a8 8 0 0 0 0-16z"/><path d="m313.838 384.214a8 8 0 0 0 -8.993 4.208l-16.845 33.689-16.845-33.689a8 8 0 0 0 -15.155 3.578v64a8 8 0 0 0 16 0v-30.111l8.845 17.689a8 8 0 0 0 14.31 0l8.845-17.689v30.111a8 8 0 0 0 16 0v-64a8 8 0 0 0 -6.162-7.786z"/><path d="m376 448h-24v-56a8 8 0 0 0 -16 0v64a8 8 0 0 0 8 8h32a8 8 0 0 0 0-16z"/><path d="m194.343 261.657a8 8 0 1 0 11.314-11.314l-42.344-42.343 42.344-42.343a8 8 0 0 0 -11.314-11.314l-48 48a8 8 0 0 0 0 11.314z"/><path d="m306.343 261.657a8 8 0 0 0 11.314 0l48-48a8 8 0 0 0 0-11.314l-48-48a8 8 0 0 0 -11.314 11.314l42.344 42.343-42.344 42.343a8 8 0 0 0 0 11.314z"/><path d="m229.47 287.589a7.991 7.991 0 0 0 10.119-5.059l48-144a8 8 0 1 0 -15.178-5.06l-48 144a8 8 0 0 0 5.059 10.119z"/></svg>